<?xml version="1.0" encoding="UTF-8"?>
<svg id="Layer_1" data-name="Layer 1" xmlns="http://www.w3.org/2000/svg" viewBox="0 0 448 448">
  <path d="M100.3,448H7.4V148.9h92.9v299.1ZM53.8,108.1C24.1,108.1,0,83.5,0,53.8c0-14.3,5.7-27.9,15.8-38C25.9,5.7,39.6,0,53.8,0s27.9,5.7,38,15.8c10.1,10.1,15.8,23.8,15.8,38,0,29.7-24.1,54.3-53.8,54.3ZM447.9,448h-92.7v-145.6c0-34.7-.7-79.2-48.3-79.2s-55.7,37.7-55.7,76.7v148.1h-92.8V148.9h89.1v40.8h1.3c12.4-23.5,42.7-48.3,87.9-48.3,94,0,111.3,61.9,111.3,142.3v164.3h-.1Z"/>
</svg>