<?xml version="1.0" encoding="UTF-8"?>
<svg id="Layer_1" data-name="Layer 1" xmlns="http://www.w3.org/2000/svg" viewBox="0 0 392.01 447.84">
  <path d="M391.92,183.63c-38.49.09-76.11-11.9-107.43-34.29v156.33c0,28.96-8.84,57.21-25.37,81.01-16.53,23.8-39.89,41.99-67.01,52.14-27.12,10.15-56.69,11.81-84.77,4.64-28.08-7.17-53.28-22.66-72.35-44.44-19.07-21.78-30.88-48.99-34.12-77.77-3.24-28.78,2.54-57.83,16.27-83.28,13.73-25.46,34.99-46.1,60.89-59.23,25.89-13.12,55.03-17.93,83.72-14v78.65c-13.12-4.11-27.21-4.02-40.24.35-13.03,4.37-24.41,12.77-32.37,23.88-7.96,11.11-12.25,24.58-12.16,38.4.09,13.82,4.55,27.12,12.68,38.23s19.6,19.33,32.72,23.53c13.12,4.2,27.21,4.2,40.24-.09,13.03-4.29,24.5-12.6,32.54-23.71,8.05-11.11,12.42-24.58,12.42-38.32V0h76.98c-.09,6.47.52,13.03,1.66,19.42,2.71,14.26,8.22,27.91,16.36,39.98,8.14,12.07,18.63,22.4,30.79,30.27,17.41,11.46,37.79,17.58,58.61,17.58v76.46l-.09-.09Z"/>
</svg>