<?xml version="1.0" encoding="UTF-8"?>
<svg id="letters" xmlns="http://www.w3.org/2000/svg" viewBox="0 0 943.88 785.27">
  <defs>
    <style>
      .cls-1 {
        fill: #c8ff00;
      }
    </style>
  </defs>
  <path class="cls-1" d="M294.1,9.53c16.74,4,33.13,8.89,49.05,14.89,42.42,16,78.97,44.85,104.45,82.35.13.2.27.39.4.59,26.07,38.87,36.89,91.28,20.22,135.46-20.94,57.12-85.42,79.38-125.04,120.97-14.65,15.25-25.7,33.64-30.52,54.26-7.98,30.56-1.02,63.36-1.15,94.35.45,29.57-14.35,57.55-41.4,69.97-22.38,10.68-51.68,7.01-68.41-12.04-12.99-14.1-17.17-33.76-27.06-49.41-8.77-14.39-20.97-23.54-36.44-31.41-55.6-25.62-77.66-45.54-109.09-98.65C-.51,342.13-14.11,257.71,20.42,208.86c27.24-36.05,70.09-49.74,111.97-52.45,46.92-3.23,78.21,9.7,121.47,29.71,14.33,6.29,29.16,13.44,44.05,18.12,13.65,4.29,26.63,6.16,39.97,3.91,42-5.86,72.96-59.54,43.05-94.7-32.96-37.09-117.14-23.81-159.2-8.61-39.49,14.02-117.1,44-156.9,31.66-18.19-6.08-22.18-26.89-14.13-42.89,6.32-13.85,17.64-25.13,28.99-35.14.24-.21.48-.43.72-.64C127.24,16.69,189.46-3.17,251.51,2.86c14.23,1.38,28.37,3.68,42.23,6.6l.36.08ZM196.99,227.83c-43.84,6.72-77.77,41.33-85.38,85.2-6.14,32.02-5.23,69.89,21.93,91.3,21.33,17.15,50.52,16.4,68.83-4.14,13.57-14.43,21.36-33.45,32.37-49.87,13.38-21.89,33.8-41.58,37.61-67.74,4.04-39.19-40.49-60.9-75-54.8l-.36.05Z"/>
  <path class="cls-1" d="M563.01,407.83c-2.15,18.09-7.96,34.83-11.09,52.7-3.61,20.61-7.8,41.15-9.74,62.01-2.72,29.21-.79,58.87,5.93,87.44,2.54,10.79,6.51,22.46,16.13,27.97,8.99,5.15,20.72,3.23,29.51-2.25,19.28-12.01,32.02-44.92,45.81-61.69,9.4-11.44,21.49-23.59,37.58-16.04,10.78,5.05,17.22,17,18.04,28.87.82,11.87-3.23,23.62-8.9,34.09-17.58,32.46-57.49,64.62-89.25,81.39-7.24,3.82-14.7,7.43-22.71,9.14-8.01,1.71-16.69,1.37-23.95-2.41-11-5.74-16.69-17.97-21.62-29.35-7.53-17.39-14.32-35.1-20.48-53.02-26.04-75.67-58.49-174.12-2.31-244.58,12.88-16.15,44.31-25.65,54.58-3.38,3.97,8.69,3.62,19.36,2.46,29.12Z"/>
  <path class="cls-1" d="M436.96,783.68c-21.61-5.4-53.92-31.38-42.41-56.58,8-17.5,26.05-12.14,38.74-22.4,5.56-4.5,8.24-13.46,3.58-18.88-4.14-4.82-11.53-4.6-17.85-3.99-3.71.36-7.43.72-11.14,1.08-24.43,2.37-50.33,5.4-74.9,2.58-22.14-2.54-37.91-14.55-40.96-37.49-2.31-17.33-.83-36.01,5.89-52.3,10.58-23.87,35.82-52.05,59.01-64.53,41.96-21.67,96.07-20.74,108.39,32.97l.08.35c10.46,49.62-24.79,78.92-67.67,46.97-16.09-12.18-33.91-30.65-50.58-11.12-10.39,11.99-12.63,34.25,2.66,42.91,16.71,9.14,36.72,3.26,54.7,1.75,19.76-2.23,52.81-5.55,71.68,2.47,20.44,8.69,36.97,26.83,42.63,48.43,10.8,41.18-33.82,99.81-81.86,87.8Z"/>
  <path class="cls-1" d="M709.57,559.93c-20.57-11.27-30.26-30.87-29.87-53.58,1.71-47.41,19.27-92.24,31.21-137.58,4.22-15.79,9.46-33.77,23.02-43.77,14.91-10.94,38.13-10.02,54.6-1.42,24.98,13.87,32.72,39.68,64.49,45.44,11.64,2.11,31.98,4.11,41.2,10.86,11.5,8.05,13.46,25.13,5.68,36.46-11.99,18.5-37.37,17.37-53.31,4.67-19.42-13.35-31.25-39.08-54.45-46.41-11.01-3.58-28.43,3.39-34.97,13.83-7.33,11.09-4.68,27.12,5.24,35.81,9.52,8.6,22.2,11.01,35.25,13.92,14.58,3.32,29.97,6.14,39.52,17.9,9.67,11.73,3.06,29.77-10.21,35.58-12.74,6.35-27.72,1.03-37.72-8.02-9.72-9.14-19.56-19.42-32.39-20.85-13-1.64-30.73,2.26-33.83,16.96-.02.11-.05.23-.07.34-3.38,16.86,8.19,33.04,25.03,36.5,3.34.69,6.72,1.23,10.08,1.74,6.15,1.08,14.67,6.39,18.48,11.64,11.61,18.57-18.47,44.83-39.4,40.81-1.05-.13-2.1-.29-3.16-.47-1.46-.24-2.9-.57-4.3-1.04-6.47-2.17-13.63-5.83-20.1-9.31Z"/>
  <path class="cls-1" d="M794.79,161.39c35.03-27.25,51.83,2.51,35.82,35.98-12.79,29.07-41.39,55.07-32.93,89.46,8.84,40.05,59.87,67.12,97.86,50.47,20.31-8.91,32.67-29.54,39.44-50.04,17.8-54.14,8.48-113.66-24.13-160.95-16.13-24.21-41.99-49.15-73.38-40.75-23.35,5.52-42.75,20.12-61.22,34.73-12.85,11.44-24.22,24.7-39.57,32.93-8.41,3.49-9.36-2.1-14.6-6.39-16.04-13.13-31.68,21.88-38.39,31.13-5.7,7.85-11.38,15.73-16.49,23.99-9.68,15.64-17.97,32.8-17.78,51.63.17,17.14,9.83,30.04,27.42,31.16,13.88.89,29.55-3.64,40.09-12.91,35.96-27.59,42.03-82.3,77.87-110.44Z"/>
  <path class="cls-1" d="M585.67,79.21c-4.83-21.51-31.28-16.97-44.83-5.85-61.27,42.86-20.48,106.38-36.97,169.69-8.08,30.44-39.36,62.5-62.52,83.49-28.67,27.1-69.36,42.12-91.73,74.77-16.5,24.44-25.11,61.78-4.47,86.11,22.07,24.94,57.73,15.35,77.31-8.67,12.13-14.25,19.64-31.21,26.94-48.25,6.67-15.55,15.26-30.21,25.55-43.64,45.7-59.64,96.75-112.57,146.53-170.58,15.72-21.5,30.05-44.25,48.95-63.19,37.24-39.82,90.79-55.67,135.7-83.86,20.06-13.21,28.87-37.37,8.1-54.07-15.88-12.75-37.31-16.03-57.36-14.97-65.54,3.02-109.95,53.77-134.2,110.82-8.53,17.79-14.77,37.25-26.35,53.31-17.5,24.23-34.73,30.81-30.9.45,1.12-8.91,4.72-17.33,7.87-25.68,5.16-13.24,8.38-27.09,11.38-40.9,1.2-6.02,2.23-12.41,1.11-18.43l-.11-.55Z"/>
  <path class="cls-1" d="M586.23,489.72c6.49-11.73,11.73-24.11,14.81-37.24,2.17-8.62,3.41-17.62,5.44-26.36,6.21-30.41,32.9-26.11,40.23,1.22,2.26,7.91,3.07,15.38,2.96,23.36-.83,25.05-7.12,57.19-14.56,80.87-5.09,17.64-18.54,35.04-38.31,35.74-15.21.72-29.1-11.04-29.5-26.54-.53-18.63,10.45-35.04,18.84-50.86l.1-.18Z"/>
  <path class="cls-1" d="M680.88,310.77c-8.9-8.58-22.57-9.28-33.24-2.78-3.37,1.96-6.4,4.7-9.2,7.37-2.55,2.1-6.16,6.55-9.05,3.72-4.29-7.02-3.8-26.23-15.28-31.85-10.55-5.17-26.08-2.89-35.98,8-13.52,14.87-11.44,40.7-.12,56.87,2.34,3.51,5.34,7.23,8.19,10.64,12.37,14.95,32.65,35.43,51.61,26.29,22.72-9.69,67.62-53.63,43.32-78.01l-.25-.24Z"/>
</svg>